<svg id="Layer_1" data-name="Layer 1" xmlns="http://www.w3.org/2000/svg" viewBox="0 0 241.43 543.23"><defs><style>.cls-1{fill:#fff;}</style></defs><path class="cls-1" d="M620.47,582.42a179.84,179.84,0,0,0-10.14-52.71c-.91-2.57-1.86-5.1-2.89-7.6-1.35-3.38-2.83-6.72-4.41-10s-3.23-6.54-5-9.7a181.07,181.07,0,0,0-23.49-33,181.48,181.48,0,0,0-47.3-37.74A120.43,120.43,0,0,0,555,384.11v0c.54-1.76,1-3.5,1.49-5.3h0a121,121,0,0,0-12.34-90.51,121.52,121.52,0,0,0-44.21-44.21,119.88,119.88,0,0,0-30.19-12.34h0a120.86,120.86,0,0,0-30.15-3.81H379.2V348.63a59.69,59.69,0,0,0,.47,7.5l-.47.11V582.45c.16,0,.31.09.47.12a59.69,59.69,0,0,0-.47,7.5V771.14h60.36a180.89,180.89,0,0,0,60.36-10.31q3.85-1.35,7.6-2.88A180.83,180.83,0,0,0,560.28,725a177.41,177.41,0,0,0,14.25-14.25,180.47,180.47,0,0,0,46.11-120.71C620.64,587.5,620.59,585,620.47,582.42ZM439.56,288.27h7.61c0,.15-.08.3-.11.47a60.38,60.38,0,0,1,52.86,59.89c0,2.57.05,5.12.17,7.65a.68.68,0,0,1-.17,0l-.47-.11a60.36,60.36,0,0,1-52.39,52.39c0,.17.08.32.11.47a.68.68,0,0,1,0,.17c-2.53-.12-5.08-.17-7.65-.17ZM544.13,650.42a121.45,121.45,0,0,1-44.21,44.22A119.88,119.88,0,0,1,469.73,707h0a120.86,120.86,0,0,1-30.15,3.8V469.35a120.86,120.86,0,0,1,30.15,3.8h0c1.79.46,3.53,1,5.29,1.5h0a120.11,120.11,0,0,1,47.5,27.75q2.41,2.28,4.69,4.69A120.43,120.43,0,0,1,555,554.59v0c.54,1.76,1,3.5,1.49,5.29v0a121,121,0,0,1-12.34,90.5Z" transform="translate(-379.2 -227.91)"/></svg>